<mxfile host="app.diagrams.net" modified="2021-12-08T16:15:20.389Z" agent="5.0 (Windows NT 10.0; Win64; x64) AppleWebKit/537.36 (KHTML, like Gecko) Chrome/96.0.4664.93 Safari/537.36" etag="TXanM43citewrzNcUOL6" version="15.8.7" type="github">
  <diagram id="QyTZXOyzQEi6su2Mxj8z" name="Page-1">
    <mxGraphModel dx="1080" dy="488" grid="1" gridSize="10" guides="1" tooltips="1" connect="1" arrows="1" fold="1" page="1" pageScale="1" pageWidth="850" pageHeight="1100" math="0" shadow="0">
      <root>
        <mxCell id="0" />
        <mxCell id="1" parent="0" />
        <mxCell id="G-pdIR6rGai7CE8eIJ_L-1" value="" style="whiteSpace=wrap;html=1;aspect=fixed;" parent="1" vertex="1">
          <mxGeometry x="230" y="140" width="310" height="310" as="geometry" />
        </mxCell>
        <mxCell id="G-pdIR6rGai7CE8eIJ_L-9" style="edgeStyle=orthogonalEdgeStyle;rounded=0;orthogonalLoop=1;jettySize=auto;html=1;entryX=0.5;entryY=0;entryDx=0;entryDy=0;fontSize=15;" parent="1" source="G-pdIR6rGai7CE8eIJ_L-2" target="G-pdIR6rGai7CE8eIJ_L-3" edge="1">
          <mxGeometry relative="1" as="geometry" />
        </mxCell>
        <mxCell id="G-pdIR6rGai7CE8eIJ_L-2" value="" style="rounded=0;whiteSpace=wrap;html=1;" parent="1" vertex="1">
          <mxGeometry x="325" y="210" width="120" height="60" as="geometry" />
        </mxCell>
        <mxCell id="G-pdIR6rGai7CE8eIJ_L-10" style="edgeStyle=orthogonalEdgeStyle;rounded=0;orthogonalLoop=1;jettySize=auto;html=1;exitX=0.5;exitY=1;exitDx=0;exitDy=0;fontSize=15;" parent="1" source="G-pdIR6rGai7CE8eIJ_L-3" edge="1">
          <mxGeometry relative="1" as="geometry">
            <mxPoint x="385" y="480" as="targetPoint" />
          </mxGeometry>
        </mxCell>
        <mxCell id="G-pdIR6rGai7CE8eIJ_L-3" value="&lt;font style=&quot;font-size: 15px&quot;&gt;Buck Converter&lt;/font&gt;" style="rounded=0;whiteSpace=wrap;html=1;" parent="1" vertex="1">
          <mxGeometry x="325" y="320" width="120" height="60" as="geometry" />
        </mxCell>
        <mxCell id="G-pdIR6rGai7CE8eIJ_L-4" value="&lt;font style=&quot;font-size: 15px&quot;&gt;Power Delivery Subsystem&lt;/font&gt;" style="text;html=1;strokeColor=none;fillColor=none;align=center;verticalAlign=middle;whiteSpace=wrap;rounded=0;" parent="1" vertex="1">
          <mxGeometry x="260.63" y="150" width="248.75" height="50" as="geometry" />
        </mxCell>
        <mxCell id="G-pdIR6rGai7CE8eIJ_L-5" value="Batteries" style="text;html=1;strokeColor=none;fillColor=none;align=center;verticalAlign=middle;whiteSpace=wrap;rounded=0;fontSize=15;" parent="1" vertex="1">
          <mxGeometry x="355" y="225" width="60" height="30" as="geometry" />
        </mxCell>
        <mxCell id="G-pdIR6rGai7CE8eIJ_L-12" value="Output" style="text;html=1;strokeColor=none;fillColor=none;align=center;verticalAlign=middle;whiteSpace=wrap;rounded=0;fontSize=15;" parent="1" vertex="1">
          <mxGeometry x="355" y="490" width="60" height="30" as="geometry" />
        </mxCell>
        <mxCell id="vHyuAGjMR6QEWa_Vr00I-16" value="" style="rounded=0;whiteSpace=wrap;html=1;fontSize=14;" vertex="1" parent="1">
          <mxGeometry x="110" y="110" width="630" height="490" as="geometry" />
        </mxCell>
        <mxCell id="vHyuAGjMR6QEWa_Vr00I-17" value="" style="rounded=0;whiteSpace=wrap;html=1;fillColor=#dae8fc;strokeColor=#6c8ebf;" vertex="1" parent="1">
          <mxGeometry x="162" y="190" width="540" height="330" as="geometry" />
        </mxCell>
        <mxCell id="vHyuAGjMR6QEWa_Vr00I-18" value="Power Layer" style="text;html=1;strokeColor=none;fillColor=none;align=center;verticalAlign=middle;whiteSpace=wrap;rounded=0;fontSize=27;" vertex="1" parent="1">
          <mxGeometry x="275" y="200" width="300" height="60" as="geometry" />
        </mxCell>
        <mxCell id="vHyuAGjMR6QEWa_Vr00I-19" value="Battery" style="rounded=0;whiteSpace=wrap;html=1;fontSize=18;fillColor=#FFFFFF;strokeColor=#d6b656;" vertex="1" parent="1">
          <mxGeometry x="350" y="270" width="150" height="50" as="geometry" />
        </mxCell>
        <mxCell id="vHyuAGjMR6QEWa_Vr00I-20" value="" style="endArrow=classic;html=1;rounded=0;endSize=6;jumpSize=10;exitX=0.5;exitY=1;exitDx=0;exitDy=0;" edge="1" parent="1" source="vHyuAGjMR6QEWa_Vr00I-21">
          <mxGeometry width="50" height="50" relative="1" as="geometry">
            <mxPoint x="70" y="430" as="sourcePoint" />
            <mxPoint x="425" y="630" as="targetPoint" />
          </mxGeometry>
        </mxCell>
        <mxCell id="vHyuAGjMR6QEWa_Vr00I-21" value="&lt;span style=&quot;font-size: 14px&quot;&gt;Buck Converter&lt;br&gt;&lt;/span&gt;" style="rounded=0;whiteSpace=wrap;html=1;fontSize=18;fillColor=#FFFFFF;strokeColor=#d79b00;" vertex="1" parent="1">
          <mxGeometry x="350" y="430" width="150" height="40" as="geometry" />
        </mxCell>
        <mxCell id="vHyuAGjMR6QEWa_Vr00I-22" value="" style="endArrow=classic;startArrow=classic;html=1;rounded=0;endSize=6;jumpSize=10;exitX=0.5;exitY=0;exitDx=0;exitDy=0;entryX=0.5;entryY=1;entryDx=0;entryDy=0;" edge="1" parent="1" source="vHyuAGjMR6QEWa_Vr00I-21" target="vHyuAGjMR6QEWa_Vr00I-19">
          <mxGeometry width="50" height="50" relative="1" as="geometry">
            <mxPoint x="410" y="450" as="sourcePoint" />
            <mxPoint x="460" y="400" as="targetPoint" />
          </mxGeometry>
        </mxCell>
      </root>
    </mxGraphModel>
  </diagram>
</mxfile>
